<svg xmlns="http://www.w3.org/2000/svg" width="426" height="407" viewBox="0 0 426 407" version="1.1">
	<path d="M 246 71.671 C 234.652 72.810, 224.244 74.307, 215 76.133 L 204.500 78.206 192.765 82.048 L 181.030 85.890 172.223 90.439 L 163.416 94.987 157.481 99.769 L 151.545 104.551 147.777 109.525 L 144.008 114.500 142.377 119.388 L 140.747 124.277 141.262 129.951 L 141.776 135.625 144.353 140.710 L 146.929 145.794 151.715 150.697 C 160.016 159.202, 174.521 167.828, 191.750 174.506 L 199.001 177.316 203.118 176.083 L 207.235 174.849 196.330 170.142 L 185.424 165.435 178.428 160.784 L 171.432 156.133 165.686 150.110 L 159.941 144.087 157.992 139.793 L 156.044 135.500 156.022 128.910 L 156 122.319 159.045 116.226 L 162.090 110.132 168.070 104.595 L 174.051 99.059 180.950 95.029 C 201.380 83.098, 238.886 74.112, 268.856 73.968 L 275.500 73.936 273.559 72.468 L 271.618 71 260.559 71.160 C 254.476 71.248, 247.925 71.478, 246 71.671 M 117.578 137.750 C 117.197 140.363, 116.234 147.675, 115.438 154 L 113.992 165.500 113.359 188.500 L 112.727 211.500 113.921 230.500 C 114.577 240.950, 115.369 250.539, 115.681 251.810 L 116.247 254.119 117.779 253.531 L 119.311 252.943 121.767 255.222 L 124.223 257.500 123.452 247 C 123.028 241.225, 122.707 226.375, 122.738 214 L 122.795 191.500 124.455 176 C 125.368 167.475, 126.956 156.450, 127.985 151.500 L 129.856 142.500 125.002 137.750 C 122.333 135.137, 119.726 133, 119.210 133 L 118.272 133 117.578 137.750 M 136 147.500 C 137.866 149.425, 139.617 151, 139.892 151 C 140.167 151, 138.866 149.425, 137 147.500 C 135.134 145.575, 133.383 144, 133.108 144 C 132.833 144, 134.134 145.575, 136 147.500 M 143 153.500 C 144.292 154.875, 145.574 156, 145.849 156 C 146.124 156, 145.292 154.875, 144 153.500 C 142.708 152.125, 141.426 151, 141.151 151 C 140.876 151, 141.708 152.125, 143 153.500"
		  stroke="none" fill="#dddddd" fill-rule="evenodd"/>
	<path d="M 167.661 80.040 C 121 90.383, 82.711 98.992, 82.575 99.172 C 82.438 99.353, 85.159 136.400, 88.621 181.500 C 92.083 226.600, 94.941 264.400, 94.972 265.500 L 95.030 267.500 98.565 271.500 L 102.099 275.500 101.482 267 L 100.865 258.500 108.182 256.399 L 115.500 254.298 115.350 251.899 C 115.267 250.580, 114.640 240.725, 113.956 230 L 112.712 210.500 113.355 188 L 113.999 165.500 115.442 154 C 116.235 147.675, 117.197 140.363, 117.578 137.750 L 118.272 133 119.087 133 C 119.535 133, 122.512 135.239, 125.701 137.975 C 134.619 145.625, 155.361 163.839, 166.760 174.029 L 177.020 183.201 187.494 180.384 L 197.968 177.568 197.234 176.940 C 196.830 176.594, 193.800 175.266, 190.500 173.988 C 174.434 167.765, 159.792 158.973, 151.715 150.697 L 146.929 145.794 144.353 140.710 L 141.776 135.625 141.262 129.951 L 140.747 124.277 142.377 119.388 L 144.008 114.500 147.777 109.525 L 151.545 104.551 157.481 99.769 L 163.416 94.987 172.102 90.501 L 180.787 86.016 191.420 82.458 C 203.519 78.409, 215.892 75.549, 230.455 73.435 L 240.500 71.977 255.735 71.334 L 270.970 70.691 263.235 65.868 L 255.500 61.044 254 61.140 C 253.175 61.193, 214.322 69.698, 167.661 80.040 M 317.195 195.500 L 317.232 198.500 317.693 196.731 C 317.947 195.758, 317.930 194.408, 317.656 193.731 L 317.158 192.500 317.195 195.500 M 146.195 286.500 L 146.232 289.500 146.693 287.731 C 146.947 286.758, 146.930 285.408, 146.656 284.731 L 146.158 283.500 146.195 286.500 M 147.195 308.500 L 147.232 311.500 147.693 309.731 C 147.947 308.758, 147.930 307.408, 147.656 306.731 L 147.158 305.500 147.195 308.500"
		  stroke="none" fill="#dbdbdb" fill-rule="evenodd"/>
	<path d="M 250 75.130 C 223.996 77.773, 197.346 85.453, 180.950 95.029 L 174.051 99.059 168.070 104.595 L 162.090 110.132 159.045 116.226 L 156 122.319 156 128.963 L 156 135.607 158.555 140.734 L 161.110 145.861 167.978 152.340 L 174.846 158.819 181.673 162.873 C 185.428 165.102, 192.825 168.733, 198.110 170.940 L 207.721 174.954 212.110 173.614 L 216.500 172.275 214.500 171.492 C 206.885 168.510, 196.854 163.392, 191.001 159.501 L 184.117 154.924 179.683 149.992 L 175.248 145.060 173.124 140.541 L 171 136.022 171.022 129.761 L 171.044 123.500 173.059 119.057 C 174.168 116.614, 176.661 112.680, 178.599 110.314 L 182.123 106.013 188.460 101.491 L 194.797 96.969 204.148 92.551 L 213.500 88.132 224 85.081 C 237.300 81.216, 248.851 79.225, 266.360 77.779 L 280.220 76.634 278.419 75.317 L 276.618 74 267.559 74.133 C 262.576 74.206, 254.675 74.655, 250 75.130 M 129.136 145.659 C 127.517 151.934, 125.168 167.672, 123.934 180.500 L 122.780 192.500 122.713 213.500 C 122.676 225.050, 122.995 239.793, 123.422 246.263 L 124.199 258.026 128.349 262.611 L 132.500 267.196 132.506 232.848 L 132.511 198.500 134.284 186.112 C 135.259 179.299, 136.999 169.624, 138.151 164.612 C 139.303 159.601, 140.386 154.600, 140.558 153.500 L 140.871 151.500 135.499 146.659 L 130.126 141.818 129.136 145.659 M 352.154 303.621 C 349.661 308.752, 349.824 309.700, 352.914 308.046 L 355 306.930 355 302.965 C 355 300.784, 354.865 299, 354.699 299 C 354.534 299, 353.388 301.079, 352.154 303.621 M 138.203 316.854 L 136.905 317.677 138.453 318.961 L 140 320.245 140 318.122 C 140 315.731, 139.987 315.722, 138.203 316.854"
		  stroke="none" fill="#dedede" fill-rule="evenodd"/>
	<path d="M 325.329 111.934 C 313.094 116.338, 302.875 126.937, 300.574 137.609 L 299.903 140.717 301.577 144.900 L 303.250 149.083 304.375 148.674 C 304.994 148.449, 319.561 144.493, 336.747 139.882 C 353.933 135.272, 367.996 131.209, 367.997 130.853 C 367.999 130.498, 360.607 125.660, 351.571 120.103 L 335.142 110 332.821 110.036 C 331.544 110.056, 328.173 110.910, 325.329 111.934 M 84.252 133.500 L 84.272 137.500 84.707 135.238 C 84.946 133.994, 84.937 132.194, 84.687 131.238 L 84.232 129.500 84.252 133.500 M 368.232 143 L 368.232 146.500 368.689 144.750 C 368.941 143.787, 368.941 142.213, 368.689 141.250 L 368.232 139.500 368.232 143 M 85.252 146.500 L 85.272 150.500 85.707 148.238 C 85.946 146.994, 85.937 145.194, 85.687 144.238 L 85.232 142.500 85.252 146.500 M 367.232 155 L 367.232 158.500 367.689 156.750 C 367.941 155.787, 367.941 154.213, 367.689 153.250 L 367.232 151.500 367.232 155 M 86.252 159.500 L 86.272 163.500 86.707 161.238 C 86.946 159.994, 86.937 158.194, 86.687 157.238 L 86.232 155.500 86.252 159.500 M 87.232 173 L 87.232 176.500 87.689 174.750 C 87.941 173.787, 87.941 172.213, 87.689 171.250 L 87.232 169.500 87.232 173 M 88.252 186.500 L 88.272 190.500 88.707 188.238 C 88.946 186.994, 88.937 185.194, 88.687 184.238 L 88.232 182.500 88.252 186.500 M 89.252 199.500 L 89.272 203.500 89.707 201.238 C 89.946 199.994, 89.937 198.194, 89.687 197.238 L 89.232 195.500 89.252 199.500 M 90.252 212.500 L 90.272 216.500 90.707 214.238 C 90.946 212.994, 90.937 211.194, 90.687 210.238 L 90.232 208.500 90.252 212.500 M 178.403 227.147 C 178.748 236.691, 179.469 263.850, 180.006 287.500 C 180.543 311.150, 181.264 337.915, 181.608 346.978 L 182.233 363.455 184.782 358.478 C 196.118 336.339, 205.048 308.929, 208.438 285.872 L 210 275.243 209.983 263.372 L 209.965 251.500 208.517 244.665 L 207.069 237.830 204.589 232.413 L 202.108 226.995 197.065 221.662 L 192.022 216.330 187.261 213.778 C 184.642 212.375, 181.437 210.904, 180.138 210.510 L 177.776 209.794 178.403 227.147 M 91.252 225.500 L 91.272 229.500 91.707 227.238 C 91.946 225.994, 91.937 224.194, 91.687 223.238 L 91.232 221.500 91.252 225.500 M 92.252 239.500 L 92.272 243.500 92.707 241.238 C 92.946 239.994, 92.937 238.194, 92.687 237.238 L 92.232 235.500 92.252 239.500 M 93.252 252.500 L 93.272 256.500 93.707 254.238 C 93.946 252.994, 93.937 251.194, 93.687 250.238 L 93.232 248.500 93.252 252.500 M 94.150 264.628 L 94 267.755 95.750 269.128 L 97.500 270.500 96.338 269 C 95.700 268.175, 94.980 266.150, 94.738 264.500 L 94.300 261.500 94.150 264.628"
		  stroke="none" fill="#e6e6e6" fill-rule="evenodd"/>
	<path d="M 261.467 78.053 C 248.644 79.298, 234.284 81.996, 223.500 85.184 L 213.500 88.140 204.148 92.555 L 194.797 96.969 188.460 101.491 L 182.123 106.013 178.599 110.314 C 176.661 112.680, 174.168 116.614, 173.059 119.057 L 171.044 123.500 171.022 129.761 L 171 136.022 173.124 140.541 L 175.248 145.060 179.683 149.992 L 184.117 154.924 191.001 159.501 C 194.787 162.017, 201.398 165.651, 205.692 167.576 C 209.986 169.500, 214.130 171.417, 214.901 171.834 L 216.302 172.593 225.646 170.046 C 230.785 168.646, 234.986 167.275, 234.982 167 C 234.977 166.725, 232.195 165.165, 228.798 163.533 C 225.401 161.902, 220.031 158.620, 216.865 156.239 L 211.108 151.912 208.012 147.706 L 204.915 143.500 203.402 138.304 L 201.889 133.107 202.581 129.304 C 203.538 124.043, 207.387 116.684, 211.653 111.963 L 215.235 107.997 222.051 103.466 C 237.657 93.091, 258.147 86.882, 284.787 84.454 L 292.074 83.790 286.787 80.420 L 281.500 77.051 275.500 77.162 C 272.200 77.223, 265.885 77.624, 261.467 78.053 M 140.591 154.298 C 138.571 161.507, 135.863 175.170, 134.489 185.075 L 132.906 196.500 132.317 218.500 L 131.727 240.500 132.466 254.239 L 133.204 267.978 139.619 275.132 L 146.034 282.287 146.454 284.393 C 146.685 285.552, 147.105 292.623, 147.386 300.107 L 147.899 313.714 143.950 314.897 L 140 316.080 140 318.425 L 140 320.769 149.109 331.634 C 154.119 337.610, 158.551 342.860, 158.958 343.299 L 159.698 344.098 157.812 334.299 C 154.813 318.714, 152.138 295.829, 150.912 275.250 L 149.777 256.218 150.902 239.627 L 152.028 223.036 153.964 211.768 C 156.053 199.605, 159.968 185.134, 163.065 178.126 L 164.997 173.753 166.296 174.626 C 168.007 175.777, 165.453 173.449, 152.224 161.798 L 141.208 152.096 140.591 154.298 M 343.527 255.828 C 333.648 274.348, 321.203 297.511, 315.872 307.303 C 310.542 317.095, 306.524 324.970, 306.944 324.803 C 307.364 324.636, 317.043 321.125, 328.452 317 L 349.196 309.500 352.313 303.500 L 355.430 297.500 358.588 260 C 360.325 239.375, 361.688 222.423, 361.618 222.328 C 361.548 222.234, 353.407 237.309, 343.527 255.828"
		  stroke="none" fill="#e0e0e0" fill-rule="evenodd"/>
	<path d="M 295 93.644 L 285.500 95.091 275.795 98.396 L 266.090 101.701 260.374 105.101 L 254.658 108.500 248.833 114.142 L 243.008 119.784 240.514 125.142 L 238.020 130.500 238.010 135.282 L 238 140.064 239.403 143.422 C 241.220 147.771, 247.211 154.371, 251.847 157.132 C 253.856 158.328, 255.996 159.908, 256.603 160.643 L 257.706 161.980 263.103 160.437 C 266.071 159.589, 269.175 158.661, 270 158.376 L 271.500 157.857 269.500 156.398 C 268.400 155.595, 265.966 153.499, 264.092 151.739 L 260.684 148.539 258.727 144.116 L 256.770 139.692 257.381 135.240 L 257.991 130.787 260.692 125.824 L 263.393 120.861 269.689 114.972 L 275.985 109.082 283.364 105.533 L 290.744 101.984 298.532 99.992 C 302.815 98.896, 307.571 98, 309.101 98 L 311.882 98 312.400 97.161 L 312.919 96.323 309.073 94.161 C 306.958 92.973, 305.064 92.044, 304.864 92.098 C 304.664 92.152, 300.225 92.848, 295 93.644 M 366.490 133.016 C 366.145 133.575, 359.031 139.734, 350.681 146.703 C 342.332 153.672, 331.345 163.416, 326.267 168.355 L 317.034 177.336 317.793 178.418 L 318.552 179.500 317.526 196.868 L 316.500 214.236 301.941 218.721 L 287.381 223.206 284.608 229.353 C 283.083 232.734, 276.018 249.804, 268.908 267.286 C 253.627 304.857, 245.141 324.087, 236.538 340.638 L 230.229 352.777 238.364 349.775 C 242.839 348.124, 248.750 346.014, 251.500 345.085 L 256.500 343.398 281 294.432 C 294.475 267.501, 308.165 240.749, 311.422 234.983 C 323.579 213.462, 337.058 194.201, 356.717 170.263 L 366.766 158.025 367.349 152.763 C 367.669 149.868, 368.225 144.012, 368.583 139.750 L 369.235 132 368.177 132 C 367.594 132, 366.835 132.457, 366.490 133.016 M 177.370 207 L 177.370 217.500 177.737 212.250 C 177.939 209.363, 177.939 204.637, 177.737 201.750 L 177.370 196.500 177.370 207 M 174.799 234.500 C 171.487 248.030, 170.291 256.707, 169.423 273.500 L 168.751 286.500 169.919 302.500 C 171.294 321.352, 173.019 334.456, 176.594 353.200 L 179.207 366.900 180.602 368.700 L 181.998 370.500 181.539 366.500 C 181.063 362.350, 179.496 309.637, 178.224 255 L 177.491 223.500 174.799 234.500"
		  stroke="none" fill="#e3e3e3" fill-rule="evenodd"/>
	<path d="M 314 104.576 C 310.975 105.371, 305.346 107.562, 301.490 109.446 L 294.480 112.872 289.043 118.365 L 283.605 123.859 281.305 128.160 C 280.039 130.526, 278.728 133.933, 278.391 135.731 L 277.777 139 278.445 142.560 L 279.113 146.119 282.562 149.937 L 286.011 153.754 294.069 151.481 C 298.500 150.230, 302.329 149.004, 302.576 148.757 C 302.824 148.510, 302.320 146.616, 301.456 144.550 L 299.887 140.793 300.551 137.646 C 300.916 135.916, 302.387 132.318, 303.820 129.652 L 306.425 124.803 311.270 120.447 L 316.116 116.091 321.308 113.636 C 324.164 112.286, 328.242 110.855, 330.370 110.457 L 334.240 109.732 328.870 106.389 L 323.500 103.045 321.500 103.088 C 320.400 103.112, 317.025 103.782, 314 104.576 M 229 170.044 C 226.525 170.510, 213.925 173.768, 201 177.284 L 177.500 183.677 177.583 185.338 C 177.629 186.252, 177.742 192.092, 177.833 198.316 L 178 209.632 183.584 211.946 L 189.168 214.261 195.066 219.722 L 200.965 225.183 203.989 231.341 L 207.013 237.500 208.489 244.500 L 209.965 251.500 209.983 263.372 L 210 275.243 208.438 285.872 C 205.084 308.686, 196.621 334.917, 185.469 357.061 L 182 363.950 182 366.975 C 182 368.639, 182.195 370, 182.433 370 C 183.110 370, 204.124 362.214, 204.466 361.836 C 205.306 360.911, 216.718 337.481, 219.730 330.500 C 231.904 302.276, 241.615 269.253, 248.065 234.144 L 250.002 223.602 249.001 222.601 L 248 221.600 248 203.775 L 248 185.950 250.621 184.954 L 253.242 183.958 252.606 180.781 C 251.816 176.831, 249.655 173.458, 246.736 171.620 L 244.500 170.212 239 169.704 L 233.500 169.196 229 170.044 M 178.300 232 L 178.300 237.500 178.716 234.750 C 178.945 233.238, 178.945 230.762, 178.716 229.250 L 178.300 226.500 178.300 232 M 179.300 272 L 179.300 277.500 179.716 274.750 C 179.945 273.238, 179.945 270.762, 179.716 269.250 L 179.300 266.500 179.300 272 M 179.232 284 L 179.232 287.500 179.689 285.750 C 179.941 284.788, 179.941 283.212, 179.689 282.250 L 179.232 280.500 179.232 284 M 180.360 316 L 180.360 325.500 180.735 320.750 C 180.941 318.137, 180.941 313.863, 180.735 311.250 L 180.360 306.500 180.360 316 M 181.286 351.500 L 181.300 356.500 181.718 353.736 C 181.947 352.216, 181.941 349.966, 181.704 348.736 L 181.272 346.500 181.286 351.500"
		  stroke="none" fill="#e5e5e5" fill-rule="evenodd"/>
	<path d="M 314 104.576 C 310.975 105.371, 305.346 107.562, 301.490 109.446 L 294.480 112.872 289.043 118.365 L 283.605 123.859 281.305 128.160 C 280.039 130.526, 278.728 133.933, 278.391 135.731 L 277.777 139 278.445 142.560 L 279.113 146.119 282.562 149.937 L 286.011 153.754 294.069 151.481 C 298.500 150.230, 302.329 149.004, 302.576 148.757 C 302.824 148.510, 302.320 146.616, 301.456 144.550 L 299.887 140.793 300.551 137.646 C 300.916 135.916, 302.387 132.318, 303.820 129.652 L 306.425 124.803 311.270 120.447 L 316.116 116.091 321.308 113.636 C 324.164 112.286, 328.242 110.855, 330.370 110.457 L 334.240 109.732 328.870 106.389 L 323.500 103.045 321.500 103.088 C 320.400 103.112, 317.025 103.782, 314 104.576 M 229 170.044 C 226.525 170.510, 213.925 173.768, 201 177.284 L 177.500 183.677 177.583 185.338 C 177.629 186.252, 177.742 192.092, 177.833 198.316 L 178 209.632 183.584 211.946 L 189.168 214.261 195.066 219.722 L 200.965 225.183 203.989 231.341 L 207.013 237.500 208.489 244.500 L 209.965 251.500 209.983 263.372 L 210 275.243 208.438 285.872 C 205.084 308.686, 196.621 334.917, 185.469 357.061 L 182 363.950 182 366.975 C 182 368.639, 182.195 370, 182.433 370 C 183.110 370, 204.124 362.214, 204.466 361.836 C 205.306 360.911, 216.718 337.481, 219.730 330.500 C 231.904 302.276, 241.615 269.253, 248.065 234.144 L 250.002 223.602 249.001 222.601 L 248 221.600 248 203.775 L 248 185.950 250.621 184.954 L 253.242 183.958 252.606 180.781 C 251.816 176.831, 249.655 173.458, 246.736 171.620 L 244.500 170.212 239 169.704 L 233.500 169.196 229 170.044 M 178.300 232 L 178.300 237.500 178.716 234.750 C 178.945 233.238, 178.945 230.762, 178.716 229.250 L 178.300 226.500 178.300 232 M 179.300 272 L 179.300 277.500 179.716 274.750 C 179.945 273.238, 179.945 270.762, 179.716 269.250 L 179.300 266.500 179.300 272 M 179.232 284 L 179.232 287.500 179.689 285.750 C 179.941 284.788, 179.941 283.212, 179.689 282.250 L 179.232 280.500 179.232 284 M 180.360 316 L 180.360 325.500 180.735 320.750 C 180.941 318.137, 180.941 313.863, 180.735 311.250 L 180.360 306.500 180.360 316 M 181.286 351.500 L 181.300 356.500 181.718 353.736 C 181.947 352.216, 181.941 349.966, 181.704 348.736 L 181.272 346.500 181.286 351.500"
		  stroke="none" fill="#e5e5e5" fill-rule="evenodd"/>
	<path d="M 278 85.121 C 266.575 86.434, 255.503 88.871, 244.893 92.408 L 235.286 95.611 227.642 99.984 L 219.997 104.358 214.683 109.095 L 209.368 113.832 206.305 119.666 L 203.242 125.500 202.566 129.304 L 201.889 133.107 203.402 138.304 L 204.915 143.500 207.951 147.623 L 210.986 151.746 216.243 155.793 C 219.134 158.019, 224.716 161.471, 228.646 163.464 L 235.793 167.088 241.111 165.740 L 246.430 164.393 240.716 161.123 C 237.573 159.325, 232.559 155.622, 229.574 152.893 L 224.146 147.933 222.073 143.651 L 220 139.369 220.010 133.934 L 220.020 128.500 222.514 123.142 L 225.008 117.784 230.833 112.142 L 236.658 106.500 242.403 103.083 C 245.563 101.204, 252.087 98.187, 256.901 96.378 L 265.655 93.090 276.078 91.095 C 281.810 89.998, 289.200 88.723, 292.500 88.263 L 298.500 87.426 295.300 85.713 L 292.099 84 288.800 84.130 C 286.985 84.201, 282.125 84.647, 278 85.121 M 163.065 178.126 C 159.968 185.134, 156.053 199.605, 153.964 211.768 L 152.028 223.036 150.902 239.627 L 149.777 256.218 150.912 275.250 C 152.135 295.772, 154.812 318.708, 157.788 334.173 L 159.650 343.847 164.075 349.304 C 166.509 352.305, 168.638 354.639, 168.807 354.490 C 168.976 354.341, 168.173 349.340, 167.022 343.378 C 165.872 337.415, 164.021 325.778, 162.911 317.518 L 160.891 302.500 160.308 279.421 L 159.724 256.342 160.907 244.921 C 163.107 223.681, 167.648 205.643, 174.036 192.768 C 175.666 189.483, 177 186.260, 177 185.606 C 177 184.501, 170.764 178.093, 166.748 175.071 L 164.997 173.753 163.065 178.126 M 356.293 200.750 C 338.230 229.236, 327.416 248.170, 304.458 291.500 C 296.882 305.800, 288.722 321.055, 286.325 325.401 C 283.929 329.746, 282.088 333.398, 282.234 333.515 C 282.589 333.800, 304.180 325.714, 305.692 324.729 C 306.918 323.931, 316.973 305.591, 345.290 252.500 L 361.824 221.500 363.192 204.750 C 363.945 195.537, 364.520 188, 364.469 188 C 364.419 188, 360.740 193.738, 356.293 200.750"
		  stroke="none" fill="#e1e1e1" fill-rule="evenodd"/>
	<path d="M 278 85.121 C 266.575 86.434, 255.503 88.871, 244.893 92.408 L 235.286 95.611 227.642 99.984 L 219.997 104.358 214.683 109.095 L 209.368 113.832 206.305 119.666 L 203.242 125.500 202.566 129.304 L 201.889 133.107 203.402 138.304 L 204.915 143.500 207.951 147.623 L 210.986 151.746 216.243 155.793 C 219.134 158.019, 224.716 161.471, 228.646 163.464 L 235.793 167.088 241.111 165.740 L 246.430 164.393 240.716 161.123 C 237.573 159.325, 232.559 155.622, 229.574 152.893 L 224.146 147.933 222.073 143.651 L 220 139.369 220.010 133.934 L 220.020 128.500 222.514 123.142 L 225.008 117.784 230.833 112.142 L 236.658 106.500 242.403 103.083 C 245.563 101.204, 252.087 98.187, 256.901 96.378 L 265.655 93.090 276.078 91.095 C 281.810 89.998, 289.200 88.723, 292.500 88.263 L 298.500 87.426 295.300 85.713 L 292.099 84 288.800 84.130 C 286.985 84.201, 282.125 84.647, 278 85.121 M 163.065 178.126 C 159.968 185.134, 156.053 199.605, 153.964 211.768 L 152.028 223.036 150.902 239.627 L 149.777 256.218 150.912 275.250 C 152.135 295.772, 154.812 318.708, 157.788 334.173 L 159.650 343.847 164.075 349.304 C 166.509 352.305, 168.638 354.639, 168.807 354.490 C 168.976 354.341, 168.173 349.340, 167.022 343.378 C 165.872 337.415, 164.021 325.778, 162.911 317.518 L 160.891 302.500 160.308 279.421 L 159.724 256.342 160.907 244.921 C 163.107 223.681, 167.648 205.643, 174.036 192.768 C 175.666 189.483, 177 186.260, 177 185.606 C 177 184.501, 170.764 178.093, 166.748 175.071 L 164.997 173.753 163.065 178.126 M 356.293 200.750 C 338.230 229.236, 327.416 248.170, 304.458 291.500 C 296.882 305.800, 288.722 321.055, 286.325 325.401 C 283.929 329.746, 282.088 333.398, 282.234 333.515 C 282.589 333.800, 304.180 325.714, 305.692 324.729 C 306.918 323.931, 316.973 305.591, 345.290 252.500 L 361.824 221.500 363.192 204.750 C 363.945 195.537, 364.520 188, 364.469 188 C 364.419 188, 360.740 193.738, 356.293 200.750"
		  stroke="none" fill="#e1e1e1" fill-rule="evenodd"/>
	<path d="M 167.661 80.040 C 121 90.383, 82.711 98.992, 82.575 99.172 C 82.438 99.353, 85.159 136.400, 88.621 181.500 C 92.083 226.600, 94.941 264.400, 94.972 265.500 L 95.030 267.500 98.565 271.500 L 102.099 275.500 101.482 267 L 100.865 258.500 108.182 256.399 L 115.500 254.298 115.350 251.899 C 115.267 250.580, 114.640 240.725, 113.956 230 L 112.712 210.500 113.355 188 L 113.999 165.500 115.442 154 C 116.235 147.675, 117.197 140.363, 117.578 137.750 L 118.272 133 119.087 133 C 119.535 133, 122.512 135.239, 125.701 137.975 C 134.619 145.625, 155.361 163.839, 166.760 174.029 L 177.020 183.201 187.494 180.384 L 197.968 177.568 197.234 176.940 C 196.830 176.594, 193.800 175.266, 190.500 173.988 C 174.434 167.765, 159.792 158.973, 151.715 150.697 L 146.929 145.794 144.353 140.710 L 141.776 135.625 141.262 129.951 L 140.747 124.277 142.377 119.388 L 144.008 114.500 147.777 109.525 L 151.545 104.551 157.481 99.769 L 163.416 94.987 172.102 90.501 L 180.787 86.016 191.420 82.458 C 203.519 78.409, 215.892 75.549, 230.455 73.435 L 240.500 71.977 255.735 71.334 L 270.970 70.691 263.235 65.868 L 255.500 61.044 254 61.140 C 253.175 61.193, 214.322 69.698, 167.661 80.040 M 317.195 195.500 L 317.232 198.500 317.693 196.731 C 317.947 195.758, 317.930 194.408, 317.656 193.731 L 317.158 192.500 317.195 195.500 M 146.195 286.500 L 146.232 289.500 146.693 287.731 C 146.947 286.758, 146.930 285.408, 146.656 284.731 L 146.158 283.500 146.195 286.500 M 147.195 308.500 L 147.232 311.500 147.693 309.731 C 147.947 308.758, 147.930 307.408, 147.656 306.731 L 147.158 305.500 147.195 308.500"
		  stroke="none" fill="#dbdbdb" fill-rule="evenodd"/>
	<path d="M 167.661 80.040 C 121 90.383, 82.711 98.992, 82.575 99.172 C 82.438 99.353, 85.159 136.400, 88.621 181.500 C 92.083 226.600, 94.941 264.400, 94.972 265.500 L 95.030 267.500 98.565 271.500 L 102.099 275.500 101.482 267 L 100.865 258.500 108.182 256.399 L 115.500 254.298 115.350 251.899 C 115.267 250.580, 114.640 240.725, 113.956 230 L 112.712 210.500 113.355 188 L 113.999 165.500 115.442 154 C 116.235 147.675, 117.197 140.363, 117.578 137.750 L 118.272 133 119.087 133 C 119.535 133, 122.512 135.239, 125.701 137.975 C 134.619 145.625, 155.361 163.839, 166.760 174.029 L 177.020 183.201 187.494 180.384 L 197.968 177.568 197.234 176.940 C 196.830 176.594, 193.800 175.266, 190.500 173.988 C 174.434 167.765, 159.792 158.973, 151.715 150.697 L 146.929 145.794 144.353 140.710 L 141.776 135.625 141.262 129.951 L 140.747 124.277 142.377 119.388 L 144.008 114.500 147.777 109.525 L 151.545 104.551 157.481 99.769 L 163.416 94.987 172.102 90.501 L 180.787 86.016 191.420 82.458 C 203.519 78.409, 215.892 75.549, 230.455 73.435 L 240.500 71.977 255.735 71.334 L 270.970 70.691 263.235 65.868 L 255.500 61.044 254 61.140 C 253.175 61.193, 214.322 69.698, 167.661 80.040 M 317.195 195.500 L 317.232 198.500 317.693 196.731 C 317.947 195.758, 317.930 194.408, 317.656 193.731 L 317.158 192.500 317.195 195.500 M 146.195 286.500 L 146.232 289.500 146.693 287.731 C 146.947 286.758, 146.930 285.408, 146.656 284.731 L 146.158 283.500 146.195 286.500 M 147.195 308.500 L 147.232 311.500 147.693 309.731 C 147.947 308.758, 147.930 307.408, 147.656 306.731 L 147.158 305.500 147.195 308.500"
		  stroke="none" fill="#dbdbdb" fill-rule="evenodd"/>
	<path d="M 317.195 187.500 L 317.232 190.500 317.693 188.731 C 317.947 187.758, 317.930 186.408, 317.656 185.731 L 317.158 184.500 317.195 187.500 M 316.195 205.500 L 316.232 208.500 316.693 206.731 C 316.947 205.758, 316.930 204.408, 316.656 203.731 L 316.158 202.500 316.195 205.500 M 125.307 267.388 L 125.904 273.776 128.046 279.638 C 129.224 282.862, 130.221 286.082, 130.261 286.793 L 130.333 288.086 131.417 287.689 C 132.012 287.470, 134.975 286.495, 138 285.523 C 141.025 284.550, 143.883 283.404, 144.352 282.975 L 145.204 282.196 135.520 271.598 C 130.193 265.769, 125.582 261, 125.273 261 L 124.711 261 125.307 267.388 M 127 290.500 C 127 291.875, 127.173 293, 127.383 293 C 127.594 293, 127.982 291.875, 128.245 290.500 L 128.723 288 127.861 288 L 127 288 127 290.500"
		  stroke="none" fill="#69a2dd" fill-rule="evenodd"/>
	<path d="M 121.276 264.500 L 121.844 273.500 124.322 280.317 C 125.685 284.066, 127.051 287.384, 127.357 287.690 L 127.914 288.247 129.438 287.662 L 130.962 287.077 129.111 282.760 C 126.748 277.247, 125 269.102, 125 263.606 L 125 259.310 122.854 257.405 L 120.708 255.500 121.276 264.500"
		  stroke="none" fill="#69a1dd" fill-rule="evenodd"/>
	<path d="M 110.360 256.307 C 106.433 257.513, 103.058 258.787, 102.860 259.138 C 102.662 259.489, 108.096 266.239, 114.935 274.138 L 127.370 288.500 126.582 286.500 C 126.149 285.400, 124.917 282.025, 123.844 279 L 121.894 273.500 121.197 264.011 L 120.500 254.523 119 254.319 C 118.175 254.206, 114.287 255.101, 110.360 256.307"
		  stroke="none" fill="#68a1dc" fill-rule="evenodd"/>
	<path d="M 102.079 265 C 102.089 267.475, 102.453 273.911, 102.887 279.303 L 103.678 289.106 105.466 290.803 L 107.255 292.500 106.721 289.500 C 106.428 287.850, 105.627 281.325, 104.941 275 C 104.255 268.675, 103.327 262.825, 102.878 262 L 102.061 260.500 102.079 265"
		  stroke="none" fill="#4e84cc" fill-rule="evenodd"/>
	<path d="M 108.043 269.957 C 108.019 271.309, 108.722 278.059, 109.605 284.957 L 111.210 297.500 114.776 302 C 116.737 304.475, 118.628 306.840, 118.977 307.256 C 119.327 307.672, 118.827 302.497, 117.866 295.756 C 116.906 289.015, 116.092 281.925, 116.057 280 L 115.995 276.500 112.040 272 L 108.085 267.500 108.043 269.957"
		  stroke="none" fill="#4f86ce" fill-rule="evenodd"/>
	<path d="M 116.060 280.050 C 116.093 281.947, 116.899 288.964, 117.850 295.642 L 119.581 307.783 123.402 312.446 C 125.504 315.011, 127.454 316.880, 127.735 316.599 C 128.016 316.317, 127.917 309.954, 127.516 302.456 L 126.786 288.826 122.268 283.663 C 119.783 280.823, 117.356 278.072, 116.875 277.550 L 116 276.600 116.060 280.050"
		  stroke="none" fill="#5088cf" fill-rule="evenodd"/>
	<path d="M 248.434 186.311 C 248.157 187.032, 248.075 192.770, 248.252 199.061 L 248.572 210.500 248.786 198.333 L 249 186.167 250.250 185.662 L 251.500 185.158 250.219 185.079 L 248.937 185 248.434 186.311 M 255 227.500 C 256.292 228.875, 257.574 230, 257.849 230 C 258.124 230, 257.292 228.875, 256 227.500 C 254.708 226.125, 253.426 225, 253.151 225 C 252.876 225, 253.708 226.125, 255 227.500 M 128.500 264 C 130.648 266.200, 132.631 268, 132.906 268 C 133.181 268, 131.648 266.200, 129.500 264 C 127.352 261.800, 125.369 260, 125.094 260 C 124.819 260, 126.352 261.800, 128.500 264 M 138 274.500 C 139.866 276.425, 141.617 278, 141.892 278 C 142.167 278, 140.866 276.425, 139 274.500 C 137.134 272.575, 135.383 271, 135.108 271 C 134.833 271, 136.134 272.575, 138 274.500 M 144.225 282.050 L 144.500 283.248 136.500 285.973 L 128.500 288.699 128.755 303.521 C 128.896 311.674, 129.129 318.462, 129.273 318.606 C 129.665 318.998, 144.141 315.020, 145.894 314.039 L 147.410 313.191 147.185 303.846 C 147.062 298.706, 146.692 291.681, 146.363 288.236 L 145.764 281.972 144.857 281.412 L 143.950 280.851 144.225 282.050"
		  stroke="none" fill="#73abe1" fill-rule="evenodd"/>
	<path d="M 248.434 186.311 C 248.157 187.032, 248.075 192.770, 248.252 199.061 L 248.572 210.500 248.786 198.333 L 249 186.167 250.250 185.662 L 251.500 185.158 250.219 185.079 L 248.937 185 248.434 186.311 M 255 227.500 C 256.292 228.875, 257.574 230, 257.849 230 C 258.124 230, 257.292 228.875, 256 227.500 C 254.708 226.125, 253.426 225, 253.151 225 C 252.876 225, 253.708 226.125, 255 227.500 M 128.500 264 C 130.648 266.200, 132.631 268, 132.906 268 C 133.181 268, 131.648 266.200, 129.500 264 C 127.352 261.800, 125.369 260, 125.094 260 C 124.819 260, 126.352 261.800, 128.500 264 M 138 274.500 C 139.866 276.425, 141.617 278, 141.892 278 C 142.167 278, 140.866 276.425, 139 274.500 C 137.134 272.575, 135.383 271, 135.108 271 C 134.833 271, 136.134 272.575, 138 274.500 M 144.225 282.050 L 144.500 283.248 136.500 285.973 L 128.500 288.699 128.755 303.521 C 128.896 311.674, 129.129 318.462, 129.273 318.606 C 129.665 318.998, 144.141 315.020, 145.894 314.039 L 147.410 313.191 147.185 303.846 C 147.062 298.706, 146.692 291.681, 146.363 288.236 L 145.764 281.972 144.857 281.412 L 143.950 280.851 144.225 282.050"
		  stroke="none" fill="#73abe1" fill-rule="evenodd"/>
	<path d="M 282 176.598 C 279.525 177.368, 276.825 178.259, 276 178.578 L 274.500 179.158 278 181.036 C 279.925 182.069, 283.688 183.661, 286.363 184.575 L 291.226 186.236 297.734 184.474 L 304.243 182.712 298.664 180.442 C 295.595 179.194, 292.065 177.459, 290.820 176.586 C 288.190 174.744, 287.956 174.745, 282 176.598 M 249.023 196.699 L 249.045 206.500 252.523 200.046 C 254.435 196.497, 256 193.288, 256 192.915 C 256 192.542, 254.425 191.036, 252.500 189.568 L 249 186.898 249.023 196.699 M 127.195 295.500 L 127.232 298.500 127.693 296.731 C 127.947 295.758, 127.930 294.408, 127.656 293.731 L 127.158 292.500 127.195 295.500"
		  stroke="none" fill="#619bd9" fill-rule="evenodd"/>
	<path d="M 291.500 176.944 C 294.680 178.968, 305 183.258, 305 182.555 C 305 182.013, 290.410 174.995, 289.328 175.017 C 288.873 175.026, 289.850 175.893, 291.500 176.944 M 252.735 199.700 L 249.171 206.500 248.461 210.500 L 247.751 214.500 252.815 204.500 L 257.880 194.500 257.090 193.700 L 256.300 192.900 252.735 199.700"
		  stroke="none" fill="#629cd9" fill-rule="evenodd"/>
	<path d="M 298.158 172.024 C 294.670 173.053, 291.295 174.070, 290.658 174.285 L 289.500 174.675 297.292 178.427 L 305.083 182.180 309.800 181.048 C 312.395 180.426, 315.074 179.572, 315.754 179.152 L 316.991 178.387 311.044 174.194 C 307.774 171.887, 304.963 170.034, 304.799 170.076 C 304.634 170.118, 301.646 170.995, 298.158 172.024 M 253.062 204.070 L 248 214.181 248 217.469 L 248 220.757 253.397 225.368 L 258.794 229.979 259.397 228.408 C 259.729 227.543, 260 219.700, 260 210.977 L 260 195.118 259.062 194.538 L 258.124 193.958 253.062 204.070"
		  stroke="none" fill="#629cda" fill-rule="evenodd"/>
	<path d="M 268.127 193.112 C 264.622 194.102, 261.647 195.044, 261.515 195.206 C 261.383 195.368, 260.976 203.470, 260.611 213.210 L 259.946 230.920 264.723 229.436 C 267.350 228.619, 271.377 227.428, 273.671 226.789 L 277.841 225.628 278.496 216.564 C 278.857 211.579, 279.230 203.900, 279.326 199.500 L 279.500 191.500 277 191.406 C 275.625 191.354, 271.632 192.121, 268.127 193.112"
		  stroke="none" fill="#5791d4" fill-rule="evenodd"/>
	<path d="M 268.127 193.112 C 264.622 194.102, 261.647 195.044, 261.515 195.206 C 261.383 195.368, 260.976 203.470, 260.611 213.210 L 259.946 230.920 264.723 229.436 C 267.350 228.619, 271.377 227.428, 273.671 226.789 L 277.841 225.628 278.496 216.564 C 278.857 211.579, 279.230 203.900, 279.326 199.500 L 279.500 191.500 277 191.406 C 275.625 191.354, 271.632 192.121, 268.127 193.112"
		  stroke="none" fill="#5791d4" fill-rule="evenodd"/>
	<path d="M 291.266 186.949 L 279.032 190.500 279.585 192.255 L 280.138 194.010 279.023 209.126 C 278.410 217.440, 278.106 224.440, 278.348 224.682 C 278.590 224.924, 281.921 224.170, 285.749 223.008 L 292.710 220.893 296.455 207.197 C 298.515 199.663, 301.044 191.277, 302.076 188.560 C 303.108 185.842, 303.851 183.570, 303.726 183.509 C 303.602 183.449, 297.995 184.997, 291.266 186.949"
		  stroke="none" fill="#5690d3" fill-rule="evenodd"/>
	<path d="M 310.770 181.306 L 304.040 183.276 302.129 188.388 C 300.420 192.961, 293 218.861, 293 220.255 C 293 220.686, 314.966 214.279, 315.659 213.645 C 315.903 213.422, 317.919 179.574, 317.696 179.447 C 317.588 179.386, 314.472 180.222, 310.770 181.306"
		  stroke="none" fill="#558fd3" fill-rule="evenodd"/>
	<path d="M 298.158 172.024 C 294.670 173.053, 291.295 174.070, 290.658 174.285 L 289.500 174.675 297.292 178.427 L 305.083 182.180 309.800 181.048 C 312.395 180.426, 315.074 179.572, 315.754 179.152 L 316.991 178.387 311.044 174.194 C 307.774 171.887, 304.963 170.034, 304.799 170.076 C 304.634 170.118, 301.646 170.995, 298.158 172.024 M 253.062 204.070 L 248 214.181 248 217.469 L 248 220.757 253.397 225.368 L 258.794 229.979 259.397 228.408 C 259.729 227.543, 260 219.700, 260 210.977 L 260 195.118 259.062 194.538 L 258.124 193.958 253.062 204.070"
		  stroke="none" fill="#629cda" fill-rule="evenodd"/>
	<path d="M 282 176.598 C 279.525 177.368, 276.825 178.259, 276 178.578 L 274.500 179.158 278 181.036 C 279.925 182.069, 283.688 183.661, 286.363 184.575 L 291.226 186.236 297.734 184.474 L 304.243 182.712 298.664 180.442 C 295.595 179.194, 292.065 177.459, 290.820 176.586 C 288.190 174.744, 287.956 174.745, 282 176.598 M 249.023 196.699 L 249.045 206.500 252.523 200.046 C 254.435 196.497, 256 193.288, 256 192.915 C 256 192.542, 254.425 191.036, 252.500 189.568 L 249 186.898 249.023 196.699 M 127.195 295.500 L 127.232 298.500 127.693 296.731 C 127.947 295.758, 127.930 294.408, 127.656 293.731 L 127.158 292.500 127.195 295.500"
		  stroke="none" fill="#619bd9" fill-rule="evenodd"/>
	<path d="M 267.602 180.704 L 262.705 182.200 264.102 183.078 C 264.871 183.561, 268.782 185.158, 272.793 186.627 L 280.085 189.299 285.689 187.955 L 291.293 186.610 288.897 185.661 C 287.579 185.138, 283.637 183.426, 280.138 181.855 C 276.638 180.285, 273.488 179.047, 273.138 179.104 C 272.787 179.161, 270.296 179.881, 267.602 180.704"
		  stroke="none" fill="#5e98d8" fill-rule="evenodd"/>
	<path d="M 252.250 185.030 C 251.012 185.528, 250 186.105, 250 186.311 C 250 186.518, 252.276 188.606, 255.057 190.951 L 260.115 195.216 267.014 193.426 L 273.913 191.637 265.706 188.467 C 261.193 186.723, 256.825 185.033, 256 184.711 L 254.500 184.125 252.250 185.030 M 260.378 207 L 260.378 218.500 260.739 212.750 C 260.937 209.588, 260.937 204.412, 260.739 201.250 L 260.378 195.500 260.378 207"
		  stroke="none" fill="#5c96d6" fill-rule="evenodd"/>
	<path d="M 104.603 272.564 C 105.325 278.579, 106.186 285.527, 106.517 288.004 L 107.120 292.508 109.141 295.004 L 111.162 297.500 110.656 293.823 C 110.377 291.800, 109.579 284.950, 108.883 278.599 L 107.616 267.051 105.454 264.340 L 103.292 261.628 104.603 272.564"
		  stroke="none" fill="#4e85cd" fill-rule="evenodd"/>
	<path d="M 248.434 186.311 C 248.157 187.032, 248.075 192.770, 248.252 199.061 L 248.572 210.500 248.786 198.333 L 249 186.167 250.250 185.662 L 251.500 185.158 250.219 185.079 L 248.937 185 248.434 186.311 M 255 227.500 C 256.292 228.875, 257.574 230, 257.849 230 C 258.124 230, 257.292 228.875, 256 227.500 C 254.708 226.125, 253.426 225, 253.151 225 C 252.876 225, 253.708 226.125, 255 227.500 M 128.500 264 C 130.648 266.200, 132.631 268, 132.906 268 C 133.181 268, 131.648 266.200, 129.500 264 C 127.352 261.800, 125.369 260, 125.094 260 C 124.819 260, 126.352 261.800, 128.500 264 M 138 274.500 C 139.866 276.425, 141.617 278, 141.892 278 C 142.167 278, 140.866 276.425, 139 274.500 C 137.134 272.575, 135.383 271, 135.108 271 C 134.833 271, 136.134 272.575, 138 274.500 M 144.225 282.050 L 144.500 283.248 136.500 285.973 L 128.500 288.699 128.755 303.521 C 128.896 311.674, 129.129 318.462, 129.273 318.606 C 129.665 318.998, 144.141 315.020, 145.894 314.039 L 147.410 313.191 147.185 303.846 C 147.062 298.706, 146.692 291.681, 146.363 288.236 L 145.764 281.972 144.857 281.412 L 143.950 280.851 144.225 282.050"
		  stroke="none" fill="#73abe1" fill-rule="evenodd"/>
	<path d="M 121.276 264.500 L 121.844 273.500 124.322 280.317 C 125.685 284.066, 127.051 287.384, 127.357 287.690 L 127.914 288.247 129.438 287.662 L 130.962 287.077 129.111 282.760 C 126.748 277.247, 125 269.102, 125 263.606 L 125 259.310 122.854 257.405 L 120.708 255.500 121.276 264.500"
		  stroke="none" fill="#69a1dd" fill-rule="evenodd"/>
	<path d="M 257.132 183.853 L 255.764 184.764 263.850 187.882 C 272.111 191.068, 274.529 191.502, 277.554 190.341 L 279.272 189.682 271.386 186.758 C 267.049 185.150, 262.375 183.634, 261 183.389 L 258.500 182.943 257.132 183.853"
		  stroke="none" fill="#5d97d7" fill-rule="evenodd"/>
	<path d="M 268.127 193.112 C 264.622 194.102, 261.647 195.044, 261.515 195.206 C 261.383 195.368, 260.976 203.470, 260.611 213.210 L 259.946 230.920 264.723 229.436 C 267.350 228.619, 271.377 227.428, 273.671 226.789 L 277.841 225.628 278.496 216.564 C 278.857 211.579, 279.230 203.900, 279.326 199.500 L 279.500 191.500 277 191.406 C 275.625 191.354, 271.632 192.121, 268.127 193.112"
		  stroke="none" fill="#5791d4" fill-rule="evenodd"/>
	<path d="M 298.158 172.024 C 294.670 173.053, 291.295 174.070, 290.658 174.285 L 289.500 174.675 297.292 178.427 L 305.083 182.180 309.800 181.048 C 312.395 180.426, 315.074 179.572, 315.754 179.152 L 316.991 178.387 311.044 174.194 C 307.774 171.887, 304.963 170.034, 304.799 170.076 C 304.634 170.118, 301.646 170.995, 298.158 172.024 M 253.062 204.070 L 248 214.181 248 217.469 L 248 220.757 253.397 225.368 L 258.794 229.979 259.397 228.408 C 259.729 227.543, 260 219.700, 260 210.977 L 260 195.118 259.062 194.538 L 258.124 193.958 253.062 204.070"
		  stroke="none" fill="#629cda" fill-rule="evenodd"/>
	<path d="M 261.467 78.053 C 248.644 79.298, 234.284 81.996, 223.500 85.184 L 213.500 88.140 204.148 92.555 L 194.797 96.969 188.460 101.491 L 182.123 106.013 178.599 110.314 C 176.661 112.680, 174.168 116.614, 173.059 119.057 L 171.044 123.500 171.022 129.761 L 171 136.022 173.124 140.541 L 175.248 145.060 179.683 149.992 L 184.117 154.924 191.001 159.501 C 194.787 162.017, 201.398 165.651, 205.692 167.576 C 209.986 169.500, 214.130 171.417, 214.901 171.834 L 216.302 172.593 225.646 170.046 C 230.785 168.646, 234.986 167.275, 234.982 167 C 234.977 166.725, 232.195 165.165, 228.798 163.533 C 225.401 161.902, 220.031 158.620, 216.865 156.239 L 211.108 151.912 208.012 147.706 L 204.915 143.500 203.402 138.304 L 201.889 133.107 202.581 129.304 C 203.538 124.043, 207.387 116.684, 211.653 111.963 L 215.235 107.997 222.051 103.466 C 237.657 93.091, 258.147 86.882, 284.787 84.454 L 292.074 83.790 286.787 80.420 L 281.500 77.051 275.500 77.162 C 272.200 77.223, 265.885 77.624, 261.467 78.053 M 140.591 154.298 C 138.571 161.507, 135.863 175.170, 134.489 185.075 L 132.906 196.500 132.317 218.500 L 131.727 240.500 132.466 254.239 L 133.204 267.978 139.619 275.132 L 146.034 282.287 146.454 284.393 C 146.685 285.552, 147.105 292.623, 147.386 300.107 L 147.899 313.714 143.950 314.897 L 140 316.080 140 318.425 L 140 320.769 149.109 331.634 C 154.119 337.610, 158.551 342.860, 158.958 343.299 L 159.698 344.098 157.812 334.299 C 154.813 318.714, 152.138 295.829, 150.912 275.250 L 149.777 256.218 150.902 239.627 L 152.028 223.036 153.964 211.768 C 156.053 199.605, 159.968 185.134, 163.065 178.126 L 164.997 173.753 166.296 174.626 C 168.007 175.777, 165.453 173.449, 152.224 161.798 L 141.208 152.096 140.591 154.298 M 343.527 255.828 C 333.648 274.348, 321.203 297.511, 315.872 307.303 C 310.542 317.095, 306.524 324.970, 306.944 324.803 C 307.364 324.636, 317.043 321.125, 328.452 317 L 349.196 309.500 352.313 303.500 L 355.430 297.500 358.588 260 C 360.325 239.375, 361.688 222.423, 361.618 222.328 C 361.548 222.234, 353.407 237.309, 343.527 255.828"
		  stroke="none" fill="#e0e0e0" fill-rule="evenodd"/>
	<path d="M 283.500 89.583 C 264.928 92.451, 248.876 98.345, 237.465 106.488 L 231.123 111.013 227.599 115.314 C 225.661 117.680, 223.168 121.614, 222.059 124.057 L 220.044 128.500 220.022 133.934 L 220 139.369 222.073 143.651 L 224.146 147.933 229.437 152.768 C 232.347 155.428, 237.426 159.212, 240.724 161.176 L 246.719 164.747 251.859 163.170 C 254.687 162.302, 257 161.277, 257 160.891 C 257 160.506, 255.050 159.047, 252.666 157.650 L 248.333 155.111 244.569 150.945 C 242.499 148.654, 240.174 145.268, 239.403 143.422 L 238 140.064 238.010 135.282 L 238.020 130.500 240.390 125.500 C 241.694 122.750, 244.406 118.609, 246.418 116.297 L 250.075 112.095 257.412 107.187 L 264.749 102.280 273.571 99.088 L 282.394 95.895 292.447 94.312 C 297.976 93.441, 303.150 92.545, 303.944 92.321 L 305.388 91.914 302.170 89.957 L 298.952 88 295.726 88.097 C 293.952 88.150, 288.450 88.819, 283.500 89.583 M 355.500 171.747 C 336.725 194.824, 324.180 212.682, 312.467 233 C 307.929 240.872, 256.938 342.276, 257.326 342.656 C 257.422 342.750, 262.909 340.833, 269.519 338.397 L 281.539 333.969 282.609 332.234 C 283.198 331.280, 289.660 319.250, 296.970 305.500 C 327.411 248.238, 337.193 230.937, 355.491 202 L 364.660 187.500 365.810 173.063 C 366.443 165.123, 366.857 158.537, 366.730 158.427 C 366.604 158.317, 361.550 164.311, 355.500 171.747 M 173.694 193.395 C 167.397 206.626, 163.066 224.076, 160.907 244.921 L 159.724 256.342 160.308 279.421 L 160.891 302.500 162.845 317 C 163.920 324.975, 165.807 336.927, 167.039 343.559 L 169.280 355.618 174.214 361.059 L 179.148 366.500 178.622 364 C 176.182 352.405, 172.821 331.980, 171.382 320 L 169.639 305.500 169.614 284 L 169.589 262.500 171.296 251.500 C 172.235 245.450, 174.062 236.450, 175.356 231.500 L 177.708 222.500 177.104 205 L 176.500 187.500 173.694 193.395"
		  stroke="none" fill="#e2e2e2" fill-rule="evenodd"/>
	<path d="M 305.053 98.528 C 300.958 99.269, 294.318 101.075, 290.299 102.541 L 282.991 105.206 277.246 108.945 L 271.500 112.683 266.843 117.699 C 264.281 120.459, 261.235 124.578, 260.074 126.855 L 257.963 130.994 257.366 135.343 L 256.770 139.692 258.738 144.096 L 260.706 148.500 263.603 151.379 C 265.196 152.963, 267.536 154.943, 268.801 155.778 L 271.103 157.297 270.301 158.026 C 269.861 158.427, 261.449 160.939, 251.609 163.608 L 233.719 168.462 236.109 169.131 C 237.424 169.499, 240.008 169.845, 241.850 169.900 L 245.200 170 248.521 173.321 L 251.842 176.642 252.532 180.321 C 252.912 182.345, 253.510 183.986, 253.861 183.969 C 254.213 183.952, 265.975 180.641, 280 176.611 L 305.500 169.285 311.243 173.334 L 316.985 177.383 326.243 168.379 C 331.334 163.426, 342.332 153.672, 350.681 146.703 C 359.031 139.734, 366.119 133.617, 366.432 133.110 L 367.001 132.189 358.251 134.607 C 353.438 135.937, 339.150 139.740, 326.500 143.058 C 313.850 146.376, 299.561 150.135, 294.746 151.412 L 285.992 153.734 282.553 149.927 L 279.113 146.119 278.445 142.560 L 277.777 139 278.391 135.731 C 278.728 133.933, 280.039 130.526, 281.305 128.160 L 283.605 123.859 289.043 118.365 L 294.480 112.872 301.490 109.446 L 308.500 106.020 315 104.402 C 318.575 103.511, 321.648 102.647, 321.829 102.480 C 322.188 102.147, 313.580 96.944, 312.912 97.090 C 312.685 97.140, 309.149 97.787, 305.053 98.528 M 177.300 192 L 177.300 197.500 177.716 194.750 C 177.945 193.238, 177.945 190.762, 177.716 189.250 L 177.300 186.500 177.300 192 M 273.021 227.555 L 259.542 231.767 255.044 227.808 L 250.547 223.849 249.853 225.674 C 249.471 226.678, 248.172 232.900, 246.966 239.500 C 242.369 264.660, 233.506 296.060, 224.525 319 C 222.479 324.225, 217.244 335.882, 212.890 344.904 C 208.537 353.926, 205.093 361.420, 205.237 361.557 C 205.382 361.694, 211.085 359.713, 217.911 357.153 L 230.321 352.500 235.146 343.500 C 242.563 329.664, 254.641 302.445, 267.536 270.500 C 273.975 254.550, 281.029 237.527, 283.210 232.672 C 285.392 227.816, 287.024 223.731, 286.838 223.593 C 286.652 223.455, 280.434 225.238, 273.021 227.555 M 178.370 247 L 178.370 257.500 178.737 252.250 C 178.939 249.363, 178.939 244.637, 178.737 241.750 L 178.370 236.500 178.370 247 M 179.389 299.500 L 179.392 312.500 179.742 305.708 C 179.935 301.973, 179.934 296.123, 179.739 292.708 L 179.385 286.500 179.389 299.500 M 180.320 331 L 180.320 337.500 180.723 334.250 C 180.945 332.462, 180.945 329.538, 180.723 327.750 L 180.320 324.500 180.320 331 M 181.310 361.500 L 181.320 367.500 181.725 364.232 C 181.947 362.435, 181.943 359.735, 181.715 358.232 L 181.300 355.500 181.310 361.500"
		  stroke="none" fill="#e4e4e4" fill-rule="evenodd"/>
	<path d="M 264 183.917 C 265.925 184.923, 268.625 186.035, 270 186.389 L 272.500 187.031 267.122 184.516 C 260.920 181.615, 258.825 181.213, 264 183.917"
		  stroke="none" fill="#5e98d7" fill-rule="evenodd"/>
</svg>