<?xml version="1.0" encoding="UTF-8"?>
<svg xmlns:xlink="http://www.w3.org/1999/xlink" width="686" height="686" version="1.1" viewBox="0 0 686 686"
	 xmlns="http://www.w3.org/2000/svg">
	<defs>
		<filter id="filter67439" x="-.049" y="-.079" width="1.1" color-interpolation-filters="sRGB">
			<feGaussianBlur stdDeviation="1.0096425"/>
		</filter>
		<filter id="filter70007" x="-.054" y="-.079" width="1.1" color-interpolation-filters="sRGB">
			<feGaussianBlur stdDeviation="0.91338108"/>
		</filter>
	</defs>
	<g>
		<path d="m238 426s44-3.9 85-1.2c55 3.6 80 15 83 18 6.2 5.5 30 80 26 89-3.8 9.4-13 33-41 36-29 2.8-152-92-159-105-6.3-13 6-36 6-36z"
			  fill="#ccd6e5"/>
		<path d="m0 668v-18l5-4.9c12-12 25-21 40-31 8.1-4.9 24-13 33-17l6.1-2.6 3.8-4.2c7.5-8.2 9.4-11 9.9-17 0.45-4.9 2.2-8.6 5.6-12 4.9-4.8 9.9-6.5 21-7.1l6.5-0.38 12-5.9c12-5.8 12-5.9 13-7.9 1.8-3.4 7.3-12 11-16 9.6-12 23-22 35-27l2.4-0.98 2.8-6.5c8.2-19 24-52 29-61l2-3.5 0.55 1.3c0.35 0.84 0.62 4.7 0.74 11l0.2 9.4 3.4 4.6c5.6 7.4 15 17 24 25 6.3 5.3 14 11 31 23 8.2 5.7 19 13 23 16 11 7.4 13 8.8 42 23l23 11 1.3-1.4c1.9-2.1 17-23 21-29 9.1-13 9.8-15 9-22-0.89-7.7-5.2-23-10-36-1.8-4.6-2.6-9.2-2.6-15 0-7.1 0.7-6.5 7.8 6.2 8.2 15 15 30 18 38l0.94 3.2 9.3 2.3c52 13 94 32 114 52 6 5.9 7.5 8.1 11 16 2.2 5 3.8 8.1 5.3 10 7.4 9.3 19 25 23 33 4.3 6.9 5.5 9.6 12 27 7.8 22 13 38 16 45 1.1 3 2 5.6 2 5.6 0 0.08-141 0.14-312 0.14h-312z"
			  fill="#f2f7fa" stroke-width=".44"/>
		<path d="m204 494s94 91 104 96 49 54 52 80c0 0-25-71-83-84z" fill="#d6dbee"/>
		<path d="m364 669 6.1 17 79-0.16-1.3-69s-9.8-17-16-34c0 0-0.77-29-36-29 0 0 0.049 65-32 115z" fill="#d6dbee"/>
		<path d="m459 627s-16-57-23-65c0 0 6.9-31 4.9-41 0 0 3.3 31 0 43 0 0 19 45 18 64z" fill="#e3e9f2"/>
	</g>
	<path d="m396 553s1.2 25-2.9 38c-6 20-5.7 24-11 39 0 0-3 4.3 10 16 0 0-0.55 6.9-0.77 15-0.22 7.7-3.2 19-2.3 25l68-0.33s-2.8-25-13-40c0 0-5.2-5.6-7.5-9.3 0 0-0.66-6.1-1.7-7.4 0 0 0.78-0.055 0.94-5.2 0.11-3.8 3.4-47-9.4-61-6.4-6.6-17-12-30-11z"
		  fill="#5e6378"/>
	<g>
		<g>
			<path d="m388 550s7.4-15 14-23c0 0 4-79 3.3-84l-166-49s0.38 51 1 54c0.63 2.5 54 62 148 102z"
				  fill="#b28e81"/>
			<path d="m221 350s-26-9.9-32-17-12-21-16-25-15-16-15-25 0.66-21 11-24c0 0 2.4-1.2 11 4.6 0 0 7 3.9 13 5.2 0 0 5 2.7 9 15 4.1 12 11 43 12 45 0.63 1.7 7.4 21 7.4 21z"
				  fill="#b38c80"/>
			<path d="m457 281s11-14 13-22c1.9-8.2 0.31-17-0.55-19s-6.1-7.4-11-0.55c-2.5 3.3-3.2 4.9-3.2 4.9s0.7 36 1.7 37z"
				  fill="#91665f"/>
			<path d="m241 409s19 22 30 28c11 5.6 48 29 66 32 19 3.6 33 1.4 53-11 20-12 52-57 60-84 0 0 4.2-16 5-23 0.77-7 5.4-67 5.3-71v-1.8s-1.3 1.4-3.2 1.7c0 0-1.6-42-1.7-50-0.16-7.4 5.6-136-134-131-140 4.7-133 144-133 144s43 153 53 165z"
				  fill="#b89389"/>
		</g>
	</g>
	<g fill="#161213" stroke-width="6">
		<path d="m159 275s-28-95 17-139c45-45 90-82 159-71 69 11 132 70 139 165 0 0-0.4 1.5-3.2 4.6 0 0 0.94-5.5-0.63-7.2-1.6-1.7-127-106-254 28 0 0-9.1 7.3-10 12-0.52 2.6-7.4 3.5-9.5 7.4-3.4-1-5.9-1.1-8.4-3.2-6-4.9-30-14-29 4.4z"/>
		<path d="m236 232s5.8 1.3 7.3 3.3c0 0-0.61-3.1-1.2-3.6-0.55-0.5 2.2 2.7 2.2 3.9 0 0-0.11-4.3-0.5-5.3 0 0 3.2 4 2.9 5.1 0 0 1.9-6.7 1.5-9.3l0.21 2.9s0.15 1.6 0.35 1.9 3 2.9 3.7 3.2c0 0-2.1-6.8-2-8 0 0 0.94 0.11 1.6 0.5s4.5 1.7 5 3.9c0 0-0.21-2.9-1-3.9 0 0 2.9 2.1 3.1 3 0 0 2.7-4.8 1.5-6.7 0 0 2.6 3.5 5 4.3 0 0 6.1 0.14 7.5-0.76 0 0-3.7-2.6-3.9-4.2 0 0 6 4 7.3 4.1 0 0 11 3.1 14 2.4 0 0-4.1-3.6-4.4-6.9 0 0 8.2 3.6 16 2.8 7.4-0.78 7.6-1.6 7.6-1.6s-4.8-3.1-4.8-4.4c0 0 3 3 13 5.3 10 2.2 11 1.8 11 1.8s-4.4-3.9-7.7-8.2c-3e-3 -4e-3 2 0.15 2 0.15s9.4 7.3 9.5 8.8c0 0 0.17-1.1-0.5-1.9 0 0 1.5 1.9 1.5 2.5 0 0 3.6 0.11 4.8-0.44l0.055-0.94s0.72 0.39 0.66 0.89c0 0-0.17-8.9-3.3-13 0 0 4.7 6.9 5 7.7s7.6 6 7.6 6-2.7-8-2.7-10c0 0 5.3 5.8 6.4 6.3 0 0 2.7-4.5 2.4-6.8 0 0 9.7 6.6 10 8.1 0 0-0.72-11-2.4-13 0 0 13 6.9 18 7.7 0 0-5.7-8.5-5.7-10 0 0 9.2 6.8 11 7.5 0 0 1.6-5.5 1.5-7.7 0 0 11 9.5 16 11 0 0-5.9-7.2-5.2-8.8 0 0 5.5 4.1 9.7 6.4-0.41-1.6-0.017-1.8-0.017-1.8 3.6 2.3 13 5.7 13 5.7s-2.1-7.9-2.7-8.6c0 0 11 7.6 12 9.7 0 0 0.8-8 0.39-8.7 0 0 11 10 12 12l0.92-1.3s-1.4-7.8-1.9-8.9c0 0 11 7.9 12 9.3l-2.2 0.11s7.4 9.6 7.1 12c0 0 1.9-11 1.5-12l1.8 0.22s0.72-3.3 0.72-4.2c0 0 10 7.6 10 9.2 0 0-0.7-30-5.5-37-4.9-7.4-51-74-140-73-89 0.63-128 55-140 77 0 0 0.94 32 3.1 43l38-2.5s-0.9-2.2 8.8-5.6z"/>
	</g>
	<g>
		<g fill="none" stroke="#be9790" stroke-width="6">
			<path transform="matrix(.98 0 0 .98 3.7 4.1)"
				  d="m334 245s5.3 4-1.3 30c0 0-5.1 11-9.2 16-4.1 5.3-13 8.5-17 9.5s-38 3.9-42 3.8c-3.7-0.11-18-1.7-21-2.4-2.7-0.77-8.9-5.3-10-7.4-1.3-2.1-7.7-27-8.1-30-0.33-3 0.66-14 2.9-17 2.2-3.2 2.2-3.2 2.2-3.2s18-6.7 22-7.1c4.4-0.33 49-5.2 65 0.11 16 5.3 12 4 16 6.6z"
				  filter="url(#filter67439)"/>
			<path d="m370 246c-1.4 7.1 5.4 30 8.1 33 2.7 3.4 8.4 8.9 12 11 3.5 2 34 1.5 43 0 9.1-1.5 22-6.7 25-8.7s7.6-14 7.7-31c0.11-17-2.8-18-7.2-21-4.4-2.5-26-4-30-3.5s-33 3.9-45 8.6c-12 4.8-11 7-12 8.4-1 1.4-1.7 3.3-1.7 3.3z"
				  filter="url(#filter70007)"/>
		</g>
		<g fill="#090907">
			<path d="m191 269-5.5-2 5.8-5 24-11 0.28 8.2s-16 1.9-24 10z"/>
			<path d="m214 245 0.61 14s4.9-1.8 8 6.6c0 0 0.83 0.55 2.8 0.72 0 0-1.7-18 8-23 0 0 23-7.6 41-6.9 18 0.66 40-2.8 57 7.3 0 0 2.7 0.94 2.4 8.8s-2.7 21-2.8 22c-0.078 1.1 1.8 1.5 2.3-0.39s5.7-21 6.4-25 3.1-5 6.7-4.9c3.6 0.078 10-0.47 13-0.39 2.7 0.078 4.9 1.7 5.3 4s6.7 22 7.2 24 1.9 0.39 1.7-1.1c-0.16-1.5-5.1-21-4.8-24s2.8-9 10-11 47-17 82-6.5c0 0 5 3.4 5.4 6.9s1 12 1 12l3-0.078 0.98-16 0.86-5.8s-9.8-3.5-24-3.4c-14 0.078-11-0.31-20-0.078-8.4 0.23-34 3-41 6.6-7.1 3.6-16 6.9-18 8.5-1.6 1.6-3.4 1.1-5.6 1.1-2.1 0-23 1.1-24 1.6-1.9 0.55-3.4-0.16-4.8-0.7-1.4-0.55-11-4.5-18-5.3-6.6-0.78-29-2.3-47-0.78-17 1.6-32 4.7-41 6.4-9 1.7-15 5-15 5z"/>
			<path d="m472 226-1.3 8.3 3.6-0.97c6e-3 -3.7 0.062-6.8-2.3-7.3z"/>
		</g>
	</g>
</svg>
