<?xml version="1.0" encoding="UTF-8" standalone="no"?>
<svg
		version="1.1"
		width="686"
		height="686"
		viewBox="0 0 686 686"
		xmlns="http://www.w3.org/2000/svg"
>
	<defs>
		<filter
				style="color-interpolation-filters:sRGB"
				x="-0.049337835"
				y="-0.078907293"
				width="1.0985439"
				height="1.15732">
			<feGaussianBlur stdDeviation="1.0096425"/>
		</filter>
		<filter
				style="color-interpolation-filters:sRGB"
				x="-0.053871493"
				y="-0.079477808"
				width="1.107518"
				height="1.1586431">
			<feGaussianBlur stdDeviation="0.91338108"/>
		</filter>
	</defs>
	<g style="display:inline">
		<path
				style="fill:#ccd6e5;fill-opacity:1"
				d="m 238.48873,425.79024 c 0,0 43.878,-3.93308 85.06006,-1.22162 54.6901,3.60083 79.80276,15.05714 82.98919,17.87372 6.19613,5.47694 29.71679,79.56122 25.96137,88.94977 -3.75542,9.38856 -12.51807,32.85994 -41.30963,35.67651 -28.79156,2.81656 -152.40752,-92.00783 -158.66655,-105.46475 -6.25904,-13.45693 5.96556,-35.81363 5.96556,-35.81363 z"
		/>
		<path
				style="display:inline;fill:#f2f7fa;fill-opacity:1;stroke-width:0.442581"
				d="m 0,668.0048 v -17.77391 l 4.97903,-4.85938 c 12.03095,-11.74182 24.54876,-21.33299 39.9637,-30.62029 8.10091,-4.88069 24.14879,-13.03164 33.08319,-16.80343 l 6.10658,-2.57798 3.83523,-4.17017 c 7.51337,-8.16952 9.36505,-11.32963 9.874,-16.85107 0.45429,-4.92845 2.19562,-8.6371 5.62604,-11.98221 4.89787,-4.77606 9.91697,-6.51845 20.56757,-7.1401 l 6.53017,-0.38114 12.3135,-5.85134 c 12.30348,-5.84657 12.31436,-5.85298 13.38595,-7.88641 1.77036,-3.35941 7.34818,-11.50323 10.94816,-15.98473 9.62223,-11.97839 22.74626,-22.20791 34.61451,-26.98027 l 2.44505,-0.98318 2.83224,-6.48798 c 8.16955,-18.71445 23.91338,-51.576 29.4007,-61.36707 l 1.98382,-3.53974 0.54526,1.32683 c 0.3472,0.84489 0.61724,4.72948 0.74342,10.6945 l 0.19817,9.36767 3.44419,4.57362 c 5.55787,7.38043 15.13668,17.2069 24.19184,24.81733 6.32343,5.31455 14.02976,10.98298 31.12962,22.8976 8.15454,5.68182 18.70873,13.03734 23.45375,16.3456 10.61734,7.4025 13.11986,8.7833 41.82689,23.0785 l 23.01419,11.46035 1.25408,-1.42707 c 1.88445,-2.1444 17.36826,-22.82942 21.44285,-28.64578 9.12444,-13.02486 9.82309,-14.76386 8.95399,-22.28703 -0.89214,-7.72266 -5.24589,-22.93144 -10.28046,-35.91233 -1.78568,-4.60413 -2.56078,-9.15633 -2.56078,-15.0397 0,-7.06703 0.69985,-6.51039 7.78008,6.18809 8.20196,14.7103 15.2988,30.06095 17.6641,38.20791 l 0.94185,3.24404 9.26795,2.34599 c 51.543,13.04705 93.69119,32.45229 113.9505,52.46335 5.98585,5.9125 7.45553,8.08791 11.04313,16.34565 2.16431,4.98182 3.82749,8.11862 5.27977,9.95807 7.35897,9.32066 18.80198,25.24981 23.39238,32.56315 4.30379,6.85677 5.47109,9.59073 11.52506,26.99378 7.78641,22.38314 13.3092,38.03707 15.75862,44.66649 1.11725,3.02395 2.0314,5.56326 2.0314,5.6429 0,0.0796 -140.50829,0.1448 -312.24064,0.1448 H 0 Z"
		/>
		<path
				style="display:inline;fill:#d6dbee;fill-opacity:1"
				d="m 204.5,493.68143 c 0,0 93.72905,90.91249 103.58703,95.91972 9.85798,5.00723 49.17221,53.73105 51.6064,80.0646 0,0 -24.84902,-71.14547 -83.05805,-84.13297 z"
		/>
		<path
				style="display:inline;fill:#d6dbee;fill-opacity:1"
				d="m 364.27587,668.77794 6.10256,17.36883 79.1768,-0.15648 -1.25181,-68.84939 c 0,0 -9.81665,-17.33348 -15.68084,-34.26219 0,0 -0.77451,-29.32097 -35.84903,-28.76774 0,0 0.0493,65.22059 -32.49768,114.66697 z"
		/>
		<path
				style="display:inline;fill:#e3e9f2;fill-opacity:1"
				d="m 458.51355,626.91548 c 0,0 -15.71161,-56.65032 -23.01419,-65.28064 0,0 6.86,-30.75936 4.86838,-40.93871 0,0 3.31936,31.20194 0,42.70903 0,0 18.80968,45.36452 18.14581,63.51032 z"
		/>
	</g>
	<g>
		<path
				style="fill:#5e6378;fill-opacity:1"
				d="m 395.86579,552.98579 c 0,0 1.20736,24.50349 -2.884,38.03505 -5.98676,19.80032 -5.66284,23.74807 -11.19883,38.79461 0,0 -2.95214,4.31096 10.21464,16.48192 0,0 -0.55323,6.86 -0.77452,14.60516 -0.22129,7.74517 -3.20871,18.58839 -2.32355,25.11646 l 68.37871,-0.33194 c 0,0 -2.76613,-24.67387 -13.49871,-39.50032 0,0 -5.20032,-5.6429 -7.52387,-9.2942 0,0 -0.66387,-6.08548 -1.65968,-7.41322 0,0 0.77996,-0.0551 0.93644,-5.21875 0.11472,-3.78555 3.43753,-47.20775 -9.42519,-60.53095 -6.39744,-6.62648 -16.50161,-11.82964 -30.24144,-10.74382 z"
		/>
	</g>
	<g style="display:inline">
		<g style="display:inline">
			<path
					style="display:inline;fill:#a98673;fill-opacity:1"
					d="m 388.38681,550.24746 c 0,0 7.35436,-15.49111 14.47401,-22.689 0,0 3.99014,-78.62914 3.286,-84.18403 L 239.5,408.32383 c 0,0 0.6259,37.71069 1.25181,40.2143 0.6259,2.50362 54.18088,61.7755 147.635,101.70933 z"
			/>
		</g>
		<g style="display:inline">
			<g>
				<path
						style="fill:#b28478;fill-opacity:1"
						d="m 221.01609,350.19304 c 0,0 -26.13147,-9.85798 -31.92108,-16.74292 -5.78961,-6.88494 -12.3616,-20.65482 -15.80407,-24.56672 -3.44247,-3.9119 -15.04205,-16.22695 -15.26334,-25.07856 -0.22129,-8.85161 0.66387,-21.35452 11.06451,-23.56742 0,0 2.4342,-1.2171 11.28581,4.6471 0,0 6.97064,3.87258 12.5029,5.20032 0,0 4.97684,2.65263 9.04521,14.70128 4.06837,12.04864 11.10979,43.03086 11.73569,44.7521 0.62591,1.72123 7.35437,20.65482 7.35437,20.65482 z"
				/>
			</g>
			<g>
				<path
						style="fill:#8d6159;fill-opacity:1"
						d="m 457.06005,281.42189 c 0,0 11.42274,-13.53517 13.30045,-21.75015 1.87771,-8.21499 0.31295,-17.29059 -0.54767,-19.1683 -0.86062,-1.87771 -6.08841,-7.36339 -11.26626,-0.54766 -2.54063,3.34429 -3.20776,4.92899 -3.20776,4.92899 0,0 0.70414,35.59826 1.72124,36.53712 z"
				/>
				<path
						style="display:inline;fill:#b59185;fill-opacity:1"
						d="m 240.76051,408.94452 c 0,0 18.67315,22.32987 29.62646,27.96301 10.95332,5.63313 47.72515,28.63508 66.34578,32.23403 18.62063,3.59894 33.01641,1.40828 53.2018,-10.95331 20.18539,-12.3616 51.79352,-57.27018 60.39969,-83.55813 0,0 4.19272,-16.02915 4.96724,-22.9998 0.77451,-6.97064 5.42161,-66.82967 5.31097,-71.14484 v -1.82564 c 0,0 -1.27242,1.38306 -3.20871,1.715 0,0 -1.59284,-42.26993 -1.74932,-49.6243 C 455.49795,223.39618 461.28756,95.00771 321.39811,99.701989 181.50867,104.39626 188.14994,243.98104 188.14994,243.98104 c 0,0 42.8738,153.45638 52.61057,164.96348 z"
				/>
			</g>
		</g>
	</g>
	<g style="display:inline;fill:#483e37">
		<path
				style="display:inline;fill:#483e37;fill-opacity:1;stroke:none;stroke-width:6;stroke-dasharray:none;stroke-opacity:1"
				d="m 170.12877,259.71143 c 0,0 -14.85141,-122.27807 28.99238,-158.39176 40.73651,-60.34967 206.45811,-75.453701 247.72835,10.57559 23.45533,40.15808 19.76539,71.73353 19.32664,110.34329 0,0 -59.00207,10.55903 -132.47045,-56.71323 0,0 5.31096,40.71742 -1.77033,55.76516 0,0 -3.54064,-47.79871 -15.9329,-59.3058 0,0 -15.04774,48.68387 -30.98065,63.73161 0,0 12.39226,-34.52129 14.16259,-48.68387 0,0 -18.58839,18.58838 -25.66968,35.40645 0,0 2.65548,-31.86581 15.04774,-46.02839 0,0 -22.71005,24.17731 -37.73173,60.01029 0,0 -5.16371,-16.27349 -0.93886,-50.54171 0,0 -28.00918,32.70346 -37.86716,64.78101 l -10.79684,17.99473 -7.11393,10.39968 z"
		/>
	</g>
	<g>
		<g>
			<path
					style="fill:none;fill-opacity:1;stroke:#be9790;stroke-width:6;stroke-dasharray:none;stroke-opacity:1;filter:url(#filter67439)"
					d="m 334.03774,244.85774 c 0,0 5.31097,3.98323 -1.32774,30.42742 0,0 -5.08968,11.06452 -9.18355,16.37548 -4.09387,5.31097 -13.38806,8.51968 -16.81806,9.51549 -3.43,0.99581 -38.39387,3.87258 -42.04516,3.76193 -3.65129,-0.11064 -17.92452,-1.65967 -20.58,-2.43419 -2.65549,-0.77452 -8.85162,-5.31097 -10.17936,-7.41323 -1.32774,-2.10225 -7.74516,-26.66548 -8.0771,-29.6529 -0.33193,-2.98742 0.66387,-13.83064 2.87678,-17.03935 2.2129,-3.20871 2.2129,-3.20871 2.2129,-3.20871 0,0 17.59258,-6.74936 22.01839,-7.08129 4.4258,-0.33194 49.2371,-5.20033 65.05935,0.11064 15.82226,5.31097 11.83904,3.98323 16.04355,6.63871 z"
					transform="matrix(0.98317523,0,0,0.98228559,3.7089754,4.0845884)"/>
			<path
					style="fill:none;fill-opacity:1;stroke:#be9790;stroke-width:6;stroke-dasharray:none;stroke-opacity:1;filter:url(#filter70007)"
					d="m 370.32935,246.40677 c -1.43838,7.08129 5.42162,29.54226 8.0771,32.97226 2.65549,3.43 8.40903,8.85161 11.94968,10.84323 3.54064,1.99161 34.41064,1.54903 43.48355,0 9.0729,-1.54903 21.68645,-6.74936 25.33774,-8.74097 3.65129,-1.99161 7.63452,-13.72 7.74516,-31.20194 0.11065,-17.48193 -2.76613,-18.1458 -7.19194,-20.69064 -4.4258,-2.54484 -25.89096,-3.98323 -30.31677,-3.54065 -4.42581,0.44258 -33.19355,3.87258 -45.14323,8.63033 -11.94967,4.75774 -11.2858,6.97064 -12.28161,8.40903 -0.9958,1.43839 -1.65968,3.31935 -1.65968,3.31935 z"
			/>
		</g>
		<g>
			<path
					style="fill:#090907;fill-opacity:1"
					d="m 190.91823,268.81242 -5.47694,-1.99161 5.75355,-5.03436 23.73339,-11.34113 0.27661,8.24307 c 0,0 -16.43081,1.93629 -24.28661,10.12403 z"
			/>
			<path
					style="fill:#090907;fill-opacity:1"
					d="m 214.375,245.245 0.60855,13.55403 c 0,0 4.86839,-1.77032 8.02177,6.63871 0,0 0.82984,0.55323 2.76613,0.7192 0,0 -1.65968,-18.20113 7.96645,-22.62694 0,0 22.51629,-7.57919 40.99404,-6.91532 18.47774,0.66387 40.17578,-2.76147 57.38813,7.25299 0,0 2.73833,0.93886 2.42538,8.84089 -0.31295,7.90203 -2.73833,21.20248 -2.81657,22.29781 -0.0782,1.09533 1.79947,1.48652 2.2689,-0.39119 0.46943,-1.87771 5.71137,-21.046 6.41551,-24.87966 0.70414,-3.83366 3.12952,-5.00723 6.72847,-4.92899 3.59894,0.0782 10.01445,-0.46943 12.75278,-0.39119 2.73833,0.0782 4.85075,1.72123 5.32018,3.99013 0.46943,2.2689 6.72846,22.45429 7.19789,23.54962 0.46943,1.09533 1.87771,0.39119 1.72124,-1.09533 -0.15648,-1.48652 -5.08547,-21.4372 -4.77252,-24.09729 0.31295,-2.66009 2.81657,-8.99736 10.0927,-11.26626 7.27613,-2.2689 47.021,-16.74292 81.52393,-6.49375 0,0 5.00723,3.36423 5.39842,6.88494 0.39119,3.52071 1.0171,11.89217 1.0171,11.89217 l 3.01466,-0.0782 0.9835,-15.63886 0.86113,-5.77149 c 0,0 -9.78828,-3.46932 -24.10583,-3.39108 -14.31754,0.0782 -11.26626,-0.31295 -19.71596,-0.0782 -8.4497,0.23472 -33.95527,2.97305 -41.07492,6.57199 -7.11965,3.59895 -16.35173,6.88494 -17.99473,8.52794 -1.64299,1.64299 -3.44247,1.09533 -5.55489,1.09533 -2.11243,0 -22.53253,1.09533 -24.41024,1.643 -1.87771,0.54766 -3.36423,-0.15648 -4.77251,-0.70415 -1.40829,-0.54766 -10.95332,-4.5378 -17.5253,-5.32018 -6.57199,-0.78238 -29.49571,-2.34713 -46.55158,-0.78238 -17.05587,1.56476 -32.07756,4.69428 -41.07492,6.41552 -8.99736,1.72123 -15.09689,4.97627 -15.09689,4.97627 z"
			/>
			<path
					style="fill:#090907;fill-opacity:1"
					d="m 472.23355,226.26935 -1.32774,8.29839 3.62362,-0.96814 c 0.006,-3.66582 0.0617,-6.7721 -2.29588,-7.33025 z"
			/>
		</g>
	</g>
</svg>